o Cube
v 0.500000 -0.500000 -0.500000
v 0.500000 -0.500000 0.500000
v -0.500000 -0.500000 0.500000
v -0.500000 -0.500000 -0.500000
v 0.500000 0.500000 -0.500000
v 0.500000 0.500000 0.500000
v -0.500000 0.500000 0.500000
v -0.500000 0.500000 -0.500000
vt 0.000000 0.000000
vt 1.000000 0.000000
vt 1.000000 1.000000
vt 0.000000 1.000000
vn 0.000000 -1.000000 0.000000
vn 0.000000 1.000000 0.000000
vn 1.000000 0.000000 0.000001
vn -0.000000 -0.000000 1.000000
vn -1.000000 -0.000000 -0.000000
vn 0.000000 0.000000 -1.000000
vn 1.000000 -0.000000 0.000000
s off
f 2/1/1 3/2/1 4/3/1
f 5/3/2 8/4/2 7/1/2
f 5/3/3 6/4/3 2/1/3
f 2/2/4 6/3/4 7/4/4
f 7/3/5 8/4/5 4/1/5
f 5/4/6 1/1/6 4/2/6
f 1/4/1 2/1/1 4/3/1
f 6/2/2 5/3/2 7/1/2
f 1/2/7 5/3/7 2/1/7
f 3/1/4 2/2/4 7/4/4
f 3/2/5 7/3/5 4/1/5
f 8/3/6 5/4/6 4/2/6